<?xml version="1.0" encoding="utf-8"?> 
<!-- Generator: Adobe Illustrator 19.0.0, SVG Export Plug-In . SVG Version: 6.00 Build 0)  -->
<svg version="1.1" id="Layer_1" xmlns="http://www.w3.org/2000/svg" xmlns:xlink="http://www.w3.org/1999/xlink" x="0px" y="0px"
	 viewBox="368 -64 767 160" style="enable-background:new 368 -64 767 160;" xml:space="preserve">
<style type="text/css">
	.st0{fill:#66499E;}
</style>
<path id="XMLID_4_" class="st0" d="M399.4,5.4c8.8,1,16.9-1.4,23.5-5.9c2.6-1.8,6.1-1.6,8.5,0.3l11.1,8.5c2.7,2.1,3.4,4,2.9,5.8
	c-0.5,1.9-0.8,3.9-0.8,6c0,4.4,1.3,8.5,3.4,12c1,1.6,1,3.5,0,5.1l-11.9,18.3c-1.4,2.2-3.9,3.4-6.4,3.3c-2.5-0.1-5.1,0.3-7.8,1.4
	c-6.2,2.6-10.6,8.5-11.2,15.2c-0.9,11.4,8.7,20.8,20.1,19.6c8.7-0.9,15.6-8.2,16.1-16.9c0.2-3.3-0.5-6.5-1.9-9.3
	c-1.1-2.3-1.1-5,0.3-7.1c3.2-4.9,8.6-13.3,11.5-17.7c1-1.6,3-2.4,4.9-2c1.7,0.4,3.5,0.7,5.4,0.7c4.2,0,8.2-1.2,11.5-3.2
	c1.6-1,3.6-0.8,5.1,0.4l6.7,5.1c2,1.5,2.9,4,2.6,6.5c-0.2,1.8-0.2,3.7,0.2,5.6c1.5,7.5,7.7,13.3,15.3,14.3
	c12.1,1.6,22.3-8.9,20.2-21.1c-1.3-7.4-7.2-13.3-14.6-14.5c-3.6-0.6-7-0.1-10,1.1c-2.3,1-5,0.5-7-1l-5.7-4.4c-2.2-1.7-3-3.6-2.5-5.4
	c0.5-1.9,0.8-3.9,0.8-6c0-5.2-1.8-10-4.7-13.8c-1.2-1.5-1.2-3.6-0.1-5.2l8-12.3c1.6-2.5,4.3-4.1,7.2-4.5c0.7-0.1,1.4-0.2,1.8-0.3
	c6.1-2.1,10.2-8.4,8.9-15.4c-1-5.2-5.2-9.5-10.5-10.5c-8.6-1.7-16.1,4.9-16.1,13.2c0,1.1,0.1,2.2,0.4,3.3c0.7,2.8,0.4,5.8-1.2,8.3
	L475-4.3c-1,1.5-2.8,2.3-4.7,2c-1-0.2-2.1-0.2-3.2-0.2c-4.2,0-8.2,1.2-11.5,3.2c-1.6,1-3.6,0.8-5.1-0.4l-12.4-9.5
	c-2.5-1.9-3.5-5.2-2.4-8.2c1.6-4.5,2.3-9.5,1.8-14.7c-1.6-16.1-14.6-29.2-30.7-30.8c-21.7-2.1-39.7,16-37.6,37.6
	C370.8-9.3,383.5,3.6,399.4,5.4z"/>
<g id="XMLID_107_">
	<path id="XMLID_108_" class="st0" d="M668.6-8.9v85.6h-20.8V63.1c-3.1,4.7-7.1,8.3-11.9,10.8c-4.9,2.5-10.4,3.8-16.7,3.8
		c-8.1,0-15.2-1.8-21.4-5.5c-6.1-3.7-10.9-8.9-14.3-15.5c-3.4-6.7-5.1-14.3-5.1-23c0-8.5,1.7-16.1,5.1-22.6
		c3.4-6.6,8.2-11.7,14.3-15.3c6.1-3.6,13.2-5.4,21.2-5.4c6.3,0,11.9,1.3,16.8,3.8c4.9,2.5,8.9,6.1,12,10.8V-8.9H668.6z M640.3,53.9
		c4.4-4.2,6.9-9.8,7.5-16.7v-6.1c-0.6-6.9-3.1-12.5-7.5-16.7c-4.4-4.2-9.9-6.3-16.6-6.3c-7.1,0-13,2.4-17.4,7.3
		c-4.5,4.9-6.8,11.1-6.9,18.8c0.1,7.7,2.4,13.9,6.9,18.8c4.5,4.9,10.3,7.3,17.4,7.3C630.4,60.2,635.9,58.1,640.3,53.9z"/>
	<path id="XMLID_111_" class="st0" d="M829.4-0.8c5.5,5.9,8.3,13.9,8.3,24.1v53.4h-21V29.4c0-6.1-1.7-10.9-5-14.3
		c-3.4-3.5-7.9-5.2-13.7-5.2c-6.6,0.2-11.9,2.6-15.8,7.2c-3.9,4.6-5.8,10.4-5.8,17.4v42.2h-21V29.4c0-6.1-1.7-10.9-5-14.3
		c-3.3-3.5-7.8-5.2-13.6-5.2c-6.7,0.2-12,2.6-15.9,7.2c-3.9,4.6-5.8,10.4-5.8,17.4v42.2h-20.8V-8.9h20.8V7
		c5.7-10.9,15.7-16.4,30.1-16.6c7.5,0,13.7,1.8,18.8,5.4c5.1,3.6,8.6,8.6,10.6,15.1c5.4-13.4,16.1-20.3,31.8-20.5
		C816.2-9.7,823.9-6.7,829.4-0.8z"/>
	<path id="XMLID_113_" class="st0" d="M879.6-42.2c2.2,2.3,3.4,5.3,3.4,9c0,3.5-1.1,6.5-3.4,8.8c-2.2,2.3-5.1,3.5-8.5,3.5
		c-3.4,0-6.2-1.2-8.5-3.5c-2.2-2.3-3.4-5.3-3.4-8.8c0-3.6,1.1-6.6,3.4-9c2.2-2.3,5.1-3.5,8.5-3.5C874.6-45.7,877.4-44.5,879.6-42.2z
		 M860.9-8.9h20.8v85.6h-20.8L860.9-8.9L860.9-8.9z"/>
	<path id="XMLID_116_" class="st0" d="M952.1,71.4c-7,4.2-14.1,6.2-21.1,6.2c-7.5,0-13.6-2.5-18.4-7.4c-4.8-4.9-7.2-11.8-7.2-20.8
		v-78.4h20.8v23.5h24.5V9.8h-24.5v36c0,9,3,13.4,9.1,13.4c3.1,0,7.1-1.2,12-3.5L952.1,71.4z"/>
	<path id="XMLID_118_" class="st0" d="M1049.9-8.9v85.6h-20.8V63.1c-3.1,4.7-7.1,8.3-11.9,10.8c-4.9,2.5-10.4,3.8-16.7,3.8
		c-8.1,0-15.2-1.8-21.4-5.5c-6.1-3.7-10.9-8.9-14.3-15.5c-3.4-6.7-5.1-14.3-5.1-23c0-8.5,1.7-16.1,5.1-22.6
		c3.4-6.6,8.2-11.7,14.3-15.3c6.1-3.6,13.2-5.4,21.2-5.4c6.3,0,11.9,1.3,16.8,3.8c4.9,2.5,8.9,6.1,12,10.8V-8.9H1049.9z
		 M1021.6,53.9c4.4-4.2,6.9-9.8,7.5-16.7v-6.1c-0.6-6.9-3.1-12.5-7.5-16.7c-4.4-4.2-9.9-6.3-16.6-6.3c-7.1,0-13,2.4-17.4,7.3
		c-4.5,4.9-6.8,11.1-6.9,18.8c0.1,7.7,2.4,13.9,6.9,18.8c4.5,4.9,10.3,7.3,17.4,7.3C1011.6,60.2,1017.2,58.1,1021.6,53.9z"/>
	<path id="XMLID_121_" class="st0" d="M1113.5,8.6c-4.4-1.4-8.5-2.1-12.2-2.1c-3.5,0-6.3,0.6-8.4,1.8c-2.1,1.2-3.1,3.1-3.1,5.7
		c0,2.7,1.3,4.7,3.9,6.2c2.6,1.4,6.7,3,12.4,4.6c6,1.8,10.9,3.6,14.7,5.4c3.8,1.8,7.2,4.4,10,7.8c2.8,3.5,4.2,8,4.2,13.7
		c0,8.3-3.2,14.7-9.6,19.2c-6.4,4.5-14.5,6.7-24.2,6.7c-6.6,0-13.1-1-19.4-3.1c-6.3-2.1-11.6-5-16-8.9l7.2-14.6
		c3.8,3.3,8.4,5.9,13.8,7.8c5.3,1.9,10.4,2.8,15.2,2.8c3.8,0,6.9-0.7,9.2-2c2.3-1.3,3.4-3.3,3.4-6c0-3-1.3-5.2-4-6.7
		c-2.7-1.5-7-3.1-13-5c-5.8-1.7-10.5-3.4-14.1-5c-3.6-1.7-6.8-4.2-9.4-7.5c-2.7-3.4-4-7.8-4-13.2c0-8.4,3.1-14.9,9.2-19.3
		c6.1-4.4,13.8-6.6,23.1-6.6c5.7,0,11.2,0.8,16.7,2.4c5.5,1.6,10.4,3.8,14.6,6.7l-7.5,15C1122.2,11.9,1117.9,9.9,1113.5,8.6z"/>
</g>
<g id="XMLID_1_">
</g>
<g id="XMLID_123_">
</g>
<g id="XMLID_124_">
</g>
<g id="XMLID_125_">
</g>
<g id="XMLID_126_">
</g>
<g id="XMLID_127_">
</g>
</svg>
