<?xml version="1.0" encoding="iso-8859-1"?> 
<!-- Generator: Adobe Illustrator 19.0.0, SVG Export Plug-In . SVG Version: 6.00 Build 0)  -->
<svg version="1.1" id="Layer_1" xmlns="http://www.w3.org/2000/svg" xmlns:xlink="http://www.w3.org/1999/xlink" x="0px" y="0px"
	 viewBox="0 0 767 160" style="enable-background:new 0 0 767 160;" xml:space="preserve">
<path id="XMLID_4_" style="fill:#FFFFFF;" d="M31.382,69.402c8.76,0.983,16.926-1.358,23.453-5.898
	c2.58-1.794,6.05-1.615,8.547,0.293l11.127,8.5c2.691,2.056,3.423,3.975,2.923,5.78c-0.532,1.92-0.816,3.943-0.816,6.033
	c0,4.394,1.256,8.494,3.427,11.963c0.976,1.559,1.039,3.518,0.035,5.059l-11.897,18.26c-1.41,2.164-3.862,3.4-6.442,3.274
	c-2.459-0.12-5.058,0.28-7.758,1.434c-6.183,2.641-10.638,8.481-11.19,15.182c-0.94,11.406,8.66,20.837,20.118,19.611
	c8.658-0.926,15.573-8.177,16.135-16.866c0.216-3.345-0.476-6.508-1.851-9.272c-1.135-2.281-1.111-4.961,0.279-7.095
	c3.167-4.861,8.632-13.25,11.507-17.663c1.05-1.612,2.995-2.416,4.863-1.954c1.717,0.424,3.511,0.653,5.359,0.653
	c4.224,0,8.17-1.169,11.548-3.19c1.592-0.953,3.623-0.754,5.097,0.372l6.71,5.126c2,1.528,2.907,4.016,2.606,6.514
	c-0.218,1.807-0.162,3.698,0.232,5.645c1.513,7.462,7.703,13.344,15.253,14.324c12.111,1.571,22.266-8.892,20.159-21.084
	c-1.278-7.393-7.249-13.312-14.649-14.549c-3.585-0.599-7.012-0.134-10.026,1.126c-2.309,0.965-4.971,0.498-6.959-1.021
	l-5.737-4.383c-2.233-1.706-2.966-3.627-2.467-5.431c0.532-1.92,0.816-3.943,0.816-6.033c0-5.196-1.759-9.979-4.709-13.793
	c-1.169-1.511-1.193-3.617-0.15-5.218l7.998-12.276c1.615-2.479,4.251-4.119,7.19-4.46c0.749-0.087,1.412-0.198,1.815-0.334
	c6.097-2.053,10.234-8.368,8.87-15.402c-1.014-5.233-5.23-9.451-10.463-10.468c-8.589-1.669-16.107,4.864-16.107,13.153
	c0,1.13,0.142,2.226,0.407,3.273c0.719,2.834,0.39,5.83-1.206,8.28l-8.393,12.883c-1.006,1.544-2.828,2.278-4.651,2.01
	c-1.04-0.153-2.103-0.234-3.186-0.234c-4.224,0-8.169,1.169-11.548,3.19c-1.592,0.953-3.623,0.754-5.098-0.372l-12.431-9.497
	c-2.515-1.921-3.452-5.235-2.406-8.222c1.59-4.537,2.255-9.507,1.756-14.692C67.917,15.791,54.886,2.728,38.746,1.166
	C17.083-0.93-0.955,17.135,1.186,38.805C2.757,54.705,15.504,67.62,31.382,69.402z"/>
<g id="XMLID_107_">
	<path id="XMLID_108_" style="fill:#FFFFFF;" d="M300.606,55.12v85.601h-20.8v-13.6c-3.095,4.694-7.067,8.295-11.92,10.8
		c-4.855,2.507-10.428,3.76-16.72,3.76c-8.107,0-15.228-1.84-21.36-5.52c-6.135-3.681-10.908-8.853-14.32-15.521
		c-3.415-6.665-5.12-14.32-5.12-22.96c0-8.533,1.705-16.081,5.12-22.641c3.412-6.56,8.185-11.652,14.32-15.28
		c6.132-3.625,13.2-5.44,21.2-5.44c6.293,0,11.893,1.255,16.8,3.76c4.905,2.508,8.905,6.107,12,10.8V55.12H300.606z M272.286,117.92
		c4.373-4.213,6.88-9.785,7.52-16.72v-6.08c-0.64-6.933-3.147-12.506-7.52-16.721c-4.375-4.213-9.92-6.32-16.64-6.32
		c-7.147,0-12.96,2.428-17.44,7.28c-4.48,4.855-6.775,11.12-6.88,18.801c0.105,7.68,2.4,13.947,6.88,18.8
		c4.48,4.854,10.292,7.279,17.44,7.279C262.366,124.24,267.911,122.135,272.286,117.92z"/>
	<path id="XMLID_111_" style="fill:#FFFFFF;" d="M461.405,63.2c5.545,5.92,8.32,13.948,8.32,24.08v53.441h-20.96V93.36
		c0-6.081-1.681-10.853-5.04-14.32c-3.36-3.465-7.92-5.2-13.681-5.2c-6.614,0.215-11.867,2.615-15.76,7.199
		c-3.895,4.588-5.84,10.401-5.84,17.441v42.24h-20.96V93.36c0-6.081-1.655-10.853-4.96-14.32c-3.308-3.465-7.84-5.2-13.601-5.2
		c-6.72,0.215-12.027,2.615-15.92,7.199c-3.895,4.588-5.84,10.401-5.84,17.441v42.24h-20.8V55.12h20.8v15.84
		c5.652-10.88,15.681-16.425,30.08-16.64c7.465,0,13.732,1.788,18.8,5.36c5.065,3.575,8.613,8.615,10.641,15.12
		c5.439-13.44,16.052-20.265,31.84-20.48C448.23,54.32,455.857,57.28,461.405,63.2z"/>
	<path id="XMLID_113_" style="fill:#FFFFFF;" d="M511.643,21.84c2.24,2.347,3.36,5.335,3.36,8.96c0,3.52-1.12,6.455-3.36,8.8
		c-2.239,2.348-5.067,3.52-8.479,3.52c-3.415,0-6.24-1.172-8.48-3.52c-2.239-2.345-3.359-5.28-3.359-8.8
		c0-3.625,1.12-6.613,3.359-8.96c2.24-2.345,5.065-3.52,8.48-3.52C506.575,18.32,509.403,19.495,511.643,21.84z M492.923,55.12h20.8
		v85.601h-20.8V55.12z"/>
	<path id="XMLID_116_" style="fill:#FFFFFF;" d="M584.12,135.44c-7.04,4.16-14.08,6.24-21.119,6.24c-7.468,0-13.601-2.452-18.4-7.36
		c-4.8-4.904-7.2-11.84-7.2-20.8v-78.4h20.8v23.52h24.48v15.2H558.2v36c0,8.96,3.04,13.439,9.12,13.439c3.093,0,7.093-1.172,12-3.52
		L584.12,135.44z"/>
	<path id="XMLID_118_" style="fill:#FFFFFF;" d="M681.881,55.12v85.601H661.08v-13.6c-3.095,4.694-7.067,8.295-11.92,10.8
		c-4.854,2.507-10.427,3.76-16.72,3.76c-8.107,0-15.228-1.84-21.36-5.52c-6.135-3.681-10.907-8.853-14.319-15.521
		c-3.415-6.665-5.12-14.32-5.12-22.96c0-8.533,1.705-16.081,5.12-22.641c3.412-6.56,8.185-11.652,14.319-15.28
		c6.133-3.625,13.2-5.44,21.2-5.44c6.293,0,11.893,1.255,16.8,3.76c4.905,2.508,8.905,6.107,12,10.8V55.12H681.881z M653.561,117.92
		c4.372-4.213,6.88-9.785,7.52-16.72v-6.08c-0.64-6.933-3.147-12.506-7.52-16.721c-4.375-4.213-9.92-6.32-16.64-6.32
		c-7.147,0-12.96,2.428-17.44,7.28c-4.479,4.855-6.775,11.12-6.88,18.801c0.104,7.68,2.4,13.947,6.88,18.8
		c4.48,4.854,10.293,7.279,17.44,7.279C643.641,124.24,649.186,122.135,653.561,117.92z"/>
	<path id="XMLID_121_" style="fill:#FFFFFF;" d="M745.479,72.56c-4.428-1.385-8.507-2.08-12.24-2.08c-3.52,0-6.319,0.615-8.399,1.84
		c-2.08,1.228-3.12,3.12-3.12,5.68c0,2.667,1.305,4.72,3.92,6.161c2.612,1.439,6.745,2.96,12.4,4.56
		c5.972,1.815,10.88,3.6,14.72,5.361c3.84,1.76,7.173,4.375,10,7.84c2.825,3.468,4.24,8.027,4.24,13.68c0,8.32-3.2,14.72-9.601,19.2
		c-6.399,4.479-14.455,6.72-24.16,6.72c-6.614,0-13.067-1.04-19.359-3.12c-6.295-2.08-11.628-5.04-16-8.88l7.2-14.56
		c3.84,3.308,8.425,5.895,13.76,7.76c5.332,1.867,10.399,2.8,15.2,2.8c3.84,0,6.904-0.665,9.199-2c2.293-1.332,3.44-3.332,3.44-6
		c0-2.984-1.335-5.225-4-6.72c-2.668-1.492-6.987-3.146-12.96-4.96c-5.76-1.705-10.455-3.385-14.08-5.04
		c-3.628-1.652-6.775-4.16-9.44-7.521c-2.667-3.36-4-7.76-4-13.2c0-8.425,3.065-14.853,9.2-19.28c6.133-4.425,13.84-6.64,23.12-6.64
		c5.652,0,11.226,0.8,16.72,2.4c5.493,1.6,10.373,3.84,14.641,6.72l-7.521,15.04C754.199,75.867,749.904,73.947,745.479,72.56z"/>
</g>
<g id="XMLID_1_">
</g>
<g id="XMLID_123_">
</g>
<g id="XMLID_124_">
</g>
<g id="XMLID_125_">
</g>
<g id="XMLID_126_">
</g>
<g id="XMLID_127_">
</g>
</svg>
